<svg width="217" height="217" viewBox="0 0 217 217" fill="none" xmlns="http://www.w3.org/2000/svg">
<g filter="url(#filter0_d_1_52)">
<rect x="71.9171" y="21" width="104" height="104" rx="24" transform="rotate(15 71.9171 21)" fill="#CD3625" shape-rendering="crispEdges"/>
<g clip-path="url(#clip0_1_52)">
<path d="M104.945 71.6059C104.729 72.3912 104.312 73.1065 103.734 73.6807C103.157 74.2548 102.439 74.6678 101.652 74.8785L105.71 59.7328L101.203 58.525L97.1445 73.6707C96.5687 73.0949 96.1535 72.3783 95.9403 71.5923C95.7272 70.8063 95.7234 69.9781 95.9294 69.1902L98.949 57.9211L94.4413 56.7133L91.4218 67.9824C90.8941 69.9778 91.0426 72.0918 91.8443 73.9937C92.6459 75.8957 94.0554 77.4783 95.8522 78.4939L89.1246 103.602L93.6323 104.809L100.36 79.7017C102.424 79.7206 104.436 79.0547 106.081 77.8084C107.726 76.5621 108.912 74.8056 109.452 72.8137L112.472 61.5446L107.964 60.3367L104.945 71.6059ZM125.995 65.168C123.604 64.5274 121.056 64.8627 118.913 66.1004C116.769 67.3381 115.205 69.3767 114.564 71.7677L113.356 76.2753C112.828 78.2707 112.977 80.3847 113.779 82.2867C114.58 84.1886 115.99 85.7712 117.787 86.7868L111.663 109.641L116.171 110.848L122.294 87.9947C124.358 88.0135 126.37 87.3477 128.015 86.1014C129.66 84.855 130.846 83.0985 131.387 81.1066L132.595 76.599C133.235 74.208 132.9 71.6604 131.662 69.5167C130.425 67.3729 128.386 65.8087 125.995 65.168ZM126.879 79.8988C126.559 81.0943 125.777 82.1136 124.705 82.7324C123.633 83.3513 122.359 83.519 121.164 83.1986C119.968 82.8783 118.949 82.0962 118.33 81.0243C117.711 79.9525 117.543 78.6787 117.864 77.4832L119.072 72.9755C119.392 71.78 120.174 70.7607 121.246 70.1419C122.318 69.523 123.592 69.3553 124.787 69.6757C125.983 69.996 127.002 70.7781 127.621 71.85C128.24 72.9219 128.407 74.1956 128.087 75.3911L126.879 79.8988Z" fill="white"/>
</g>
</g>
<defs>
<filter id="filter0_d_1_52" x="-5.00007" y="-5" width="227.373" height="227.373" filterUnits="userSpaceOnUse" color-interpolation-filters="sRGB">
<feFlood flood-opacity="0" result="BackgroundImageFix"/>
<feColorMatrix in="SourceAlpha" type="matrix" values="0 0 0 0 0 0 0 0 0 0 0 0 0 0 0 0 0 0 127 0" result="hardAlpha"/>
<feOffset dy="24"/>
<feGaussianBlur stdDeviation="25"/>
<feComposite in2="hardAlpha" operator="out"/>
<feColorMatrix type="matrix" values="0 0 0 0 0 0 0 0 0 0 0 0 0 0 0 0 0 0 0.1 0"/>
<feBlend mode="normal" in2="BackgroundImageFix" result="effect1_dropShadow_1_52"/>
<feBlend mode="normal" in="SourceGraphic" in2="effect1_dropShadow_1_52" result="shape"/>
</filter>
<clipPath id="clip0_1_52">
<rect width="56" height="56" fill="white" transform="translate(88.8877 50.3939) rotate(15)"/>
</clipPath>
</defs>
</svg>
