<svg width="217" height="217" viewBox="0 0 217 217" fill="none" xmlns="http://www.w3.org/2000/svg">
<g filter="url(#filter0_d_1_46)">
<rect x="71.9172" y="21" width="104" height="104" rx="24" transform="rotate(15 71.9172 21)" fill="#216659" shape-rendering="crispEdges"/>
<g clip-path="url(#clip0_1_46)">
<path fill-rule="evenodd" clip-rule="evenodd" d="M98.3048 62.5797C99.222 59.1567 102.74 57.1253 106.164 58.0425L124.194 62.8738C127.617 63.791 129.649 67.3095 128.731 70.7325L119.069 106.794C118.152 110.217 114.633 112.248 111.21 111.331L93.1794 106.5C89.7564 105.583 87.725 102.064 88.6422 98.641L98.3048 62.5797ZM105.258 61.4232C103.702 61.0063 102.102 61.9297 101.685 63.4856L92.0229 99.5468C91.606 101.103 92.5294 102.702 94.0853 103.119L112.116 107.95C113.672 108.367 115.271 107.444 115.688 105.888L125.351 69.8267C125.768 68.2707 124.844 66.6714 123.288 66.2545L105.258 61.4232Z" fill="white"/>
<path fill-rule="evenodd" clip-rule="evenodd" d="M107.401 60.1858C107.651 59.2522 108.611 58.6982 109.544 58.9483L120.813 61.9679C121.747 62.218 122.301 63.1776 122.051 64.1112L121.447 66.365C120.863 68.5433 118.624 69.8361 116.446 69.2524L109.684 67.4406C107.506 66.857 106.213 64.6179 106.797 62.4396L107.401 60.1858ZM110.329 62.782L110.178 63.3455C110.094 63.6567 110.279 63.9765 110.59 64.0599L117.352 65.8716C117.663 65.955 117.983 65.7703 118.066 65.4592L118.217 64.8957L110.329 62.782ZM99.3291 85.8028C100.58 81.1349 105.378 78.3649 110.046 79.6156C114.713 80.8664 117.484 85.6643 116.233 90.3322L112.852 89.4263C113.602 86.6257 111.94 83.7468 109.14 82.9964C106.339 82.246 103.46 83.9081 102.71 86.7087L99.3291 85.8028Z" fill="white"/>
<path fill-rule="evenodd" clip-rule="evenodd" d="M110.65 77.3618C111.583 77.612 112.137 78.5716 111.887 79.5051L111.585 80.632C111.335 81.5656 110.375 82.1196 109.442 81.8695C108.508 81.6193 107.954 80.6597 108.204 79.7262L108.506 78.5993C108.756 77.6657 109.716 77.1117 110.65 77.3618ZM97.9002 86.6278C98.1503 85.6943 99.11 85.1402 100.044 85.3904L115.82 89.6177C116.754 89.8679 117.308 90.8275 117.058 91.761C116.808 92.6946 115.848 93.2486 114.914 92.9985L99.1376 88.7711C98.2041 88.5209 97.6501 87.5613 97.9002 86.6278ZM98.2614 98.8028C98.5115 97.8693 99.4711 97.3152 100.405 97.5654L109.42 99.981C110.354 100.231 110.908 101.191 110.657 102.124C110.407 103.058 109.448 103.612 108.514 103.362L99.4988 100.946C98.5653 100.696 98.0113 99.7363 98.2614 98.8028Z" fill="white"/>
</g>
</g>
<defs>
<filter id="filter0_d_1_46" x="-4.99994" y="-5" width="227.373" height="227.373" filterUnits="userSpaceOnUse" color-interpolation-filters="sRGB">
<feFlood flood-opacity="0" result="BackgroundImageFix"/>
<feColorMatrix in="SourceAlpha" type="matrix" values="0 0 0 0 0 0 0 0 0 0 0 0 0 0 0 0 0 0 127 0" result="hardAlpha"/>
<feOffset dy="24"/>
<feGaussianBlur stdDeviation="25"/>
<feComposite in2="hardAlpha" operator="out"/>
<feColorMatrix type="matrix" values="0 0 0 0 0 0 0 0 0 0 0 0 0 0 0 0 0 0 0.1 0"/>
<feBlend mode="normal" in2="BackgroundImageFix" result="effect1_dropShadow_1_46"/>
<feBlend mode="normal" in="SourceGraphic" in2="effect1_dropShadow_1_46" result="shape"/>
</filter>
<clipPath id="clip0_1_46">
<rect width="56" height="56" fill="white" transform="translate(88.8878 50.3939) rotate(15)"/>
</clipPath>
</defs>
</svg>
